# xmcd CD database file
#
# Track frame offsets:
#	150
#	18870
#	40148
#	62722
#	79226
#	99935
#	117843
#	149600
#	177960
#	196622
#	203721
#	223280
#	242963
#	255848
#
# Disc length: 3605 seconds
#
# Revision: 1
# Processed by: cddbd v1.5.1PL2 Copyright (c) Steve Scherf et al.
# Submitted via: CDex 1.51
#
DISCID=be0e130e
DTITLE=SOIL and "PIMP" SESSIONS - Pimp of The Year [初回限定盤]
DYEAR=2006
DGENRE=JAZZ and FUSION
TTITLE0=MEMAI
TTITLE1=SUMMER GODDESS
TTITLE2=WORLDWIDE
TTITLE3=Crush!
TTITLE4=SABOTAGE
TTITLE5=SCOOP OUT
TTITLE6=SAHARA
TTITLE7=破片
TTITLE8=THE BLACK WIDOW BLUES
TTITLE9=THE WHITE WIDOW
TTITLE10=i-rony
TTITLE11=LAST LONG
TTITLE12=SATSURIKUニューウェイヴ
TTITLE13=NEED FOR SPEED
EXTD=YEAR: 2006
EXTT0=
EXTT1=
EXTT2=
EXTT3=
EXTT4=
EXTT5=
EXTT6=
EXTT7=
EXTT8=
EXTT9=
EXTT10=
EXTT11=
EXTT12=
EXTT13=
PLAYORDER=
